<?xml version="1.0" standalone="no"?>
<!DOCTYPE svg PUBLIC "-//W3C//DTD SVG 20010904//EN"
 "http://www.w3.org/TR/2001/REC-SVG-20010904/DTD/svg10.dtd">
<svg version="1.0" xmlns="http://www.w3.org/2000/svg"
 width="16.000000pt" height="16.000000pt" viewBox="0 0 16.000000 16.000000"
 preserveAspectRatio="xMidYMid meet">
<metadata>
Created by potrace 1.11, written by Peter Selinger 2001-2013
</metadata>
<g transform="translate(0.000000,16.000000) scale(0.000688,-0.000688)"
fill="#000000" stroke="none">
<path d="M3220 21490 l0 -650 2610 0 2610 0 0 650 0 650 -2610 0 -2610 0 0
-650z"/>
<path d="M11038 20188 l-3 -1953 -4883 -3 -4882 -2 2 -5208 3 -5207 4233 -3
4232 -2 0 -975 0 -975 -1630 0 -1630 0 0 -2280 0 -2280 5210 0 5210 0 0 2280
0 2280 -1630 0 -1630 0 0 975 0 975 4233 2 4232 3 3 5207 2 5208 -4882 2
-4883 3 -3 1953 -2 1952 -650 0 -650 0 -2 -1952z m-2608 -7163 l0 -2605 -2600
0 -2600 0 0 2605 0 2605 2600 0 2600 0 0 -2605z m11720 0 l0 -2605 -2600 0
-2600 0 0 2605 0 2605 2600 0 2600 0 0 -2605z"/>
<path d="M4530 13025 l0 -1305 1300 0 1300 0 0 1305 0 1305 -1300 0 -1300 0 0
-1305z"/>
<path d="M16250 13025 l0 -1305 1300 0 1300 0 0 1305 0 1305 -1300 0 -1300 0
0 -1305z"/>
<path d="M14940 21490 l0 -650 2610 0 2610 0 0 650 0 650 -2610 0 -2610 0 0
-650z"/>
<path d="M2572 3583 l3 -2278 1303 -3 1302 -2 0 2280 0 2280 -1305 0 -1305 0
2 -2277z"/>
<path d="M18200 3580 l0 -2280 1303 2 1302 3 3 2278 2 2277 -1305 0 -1305 0 0
-2280z"/>
</g>
</svg>
